#!OML:ASF E:\acrobat2\Project_11_07_03\Capture day 1\Session 1\Acrobat.ASF
:FULLY-SPECIFIED
:DEGREES
1483
root 11.1529 4.15172 10.6304 -82.5439 2.91446 168.791
lowerback -16.225004566194002 -7.036259491372915 -3.0067641523148185
upperback -7.348027365477181 -8.675712934300027 9.209993340778576
thorax 0.5648895173281255 -5.7159382418445945 9.618837873649063
lowerneck -1.5816438925479426 -18.485571740530297 13.509413977991569
upperneck -31.393319831859394 -23.2516998107945 -0.29856234960026135
head -10.357398230070459 -9.047343397143946 -2.2537402220761837
rclavicle 2.38542e-15 -1.58034e-14
rhumerus -16.534376415256506 -29.032515175829985 46.39848270486797
rradius 59.34381254866833
rwrist -27.844988541579816
rhand -24.183215837846934 -37.91668819821387
rfingers 7.679268573729646
rthumb 1.0125409140934516 -68.75796664122818
lclavicle 2.38542e-15 -1.58034e-14
lhumerus -13.666570002631309 19.40487014714273 -46.51668120795498
lradius 26.894119356641013
lwrist 27.698214096751716
lhand -15.15775855453677 -31.2399866544365
lfingers 8.22619613655551
lthumb 9.844510630794476 -2.27004150394931
rfemur 3.574544987905816 4.23271157581357 2.8869731771311136
rtibia 22.64417398286223
rfoot 25.021390244335105 -17.04867815879165
rtoes 24.161078754078023
lfemur -9.696254850941951 -11.529558212932445 -4.03643549522694
ltibia 45.258764375717405
lfoot 43.45719815260166 8.57962275645175
ltoes 4.47688
1484
root 11.1529 4.15172 10.6304 -82.5439 2.91446 168.791
lowerback -16.222745768855795 -7.1268097143597 -3.0168378430227683
upperback -7.342839120614447 -8.722589648423844 9.194414440586936
thorax 0.5954530162479139 -5.634187170968717 9.693822163247692
lowerneck -1.5573831974580605 -18.43678195581734 13.431167425086858
upperneck -31.454154914936236 -23.33376293850489 -0.35492115247809697
head -10.263328185070877 -9.054921333774242 -2.2772895922916145
rclavicle 2.38542e-15 -1.58034e-14
rhumerus -18.284061353149635 -24.401850082795548 44.062321534749906
rradius 62.32346093780674
rwrist -27.804872175296758
rhand -24.18593570789697 -37.9041108917048
rfingers 7.650220867010494
rthumb 1.0875547736070588 -68.7107389667219
lclavicle 2.38542e-15 -1.58034e-14
lhumerus -14.364393445679354 17.935236635575883 -42.06401403008395
lradius 24.711431816111325
lwrist 27.773640300141828
lhand -15.245790390632862 -31.16539851846562
lfingers 8.186628454918221
lthumb 9.926630345483046 -2.283091249554189
rfemur 3.993202529807011 4.422848941826508 2.944863225208864
rtibia 24.919838602435142
rfoot 24.695995024590665 -17.41338297966554
rtoes 23.68392749223939
lfemur -9.920872633025406 -11.565410659728018 -3.939366308276063
ltibia 44.09829155563564
lfoot 43.1708664872358 8.713479385613823
ltoes 4.47688
1485
root 11.1529 4.15172 10.6304 -82.5439 2.91446 168.791
lowerback -16.14505548598459 -7.198318622582151 -3.1048625542740305
upperback -7.419888229229402 -8.646424947179431 9.245142560453763
thorax 0.6455839396075904 -5.623531656092726 9.680144885877942
lowerneck -1.575606598184868 -18.53291296467826 13.339967570045287
upperneck -31.550398646714086 -23.28014365139623 -0.3092133730168139
head -10.31581867435404 -8.998350449183848 -2.203188681420228
rclavicle 2.38542e-15 -1.58034e-14
rhumerus -17.55607331429492 -29.234865985368764 44.189778692833784
rradius 59.66341323424066
rwrist -27.801229353355037
rhand -24.276313204971146 -37.96088759437443
rfingers 7.6729808963861155
rthumb 1.158237507244941 -68.68016525695265
lclavicle 2.38542e-15 -1.58034e-14
lhumerus -16.279930091169845 22.522900852767087 -43.65953149087982
lradius 25.527740267848397
lwrist 27.825858144076488
lhand -15.162195122922885 -31.166221469950127
lfingers 8.274995699799264
lthumb 9.87351630254644 -2.2909929011902497
rfemur 3.951635328311798 4.684568301007691 2.4462226154421973
rtibia 22.296652790142407
rfoot 25.042730951010117 -17.278509736105562
rtoes 23.70382138122937
lfemur -9.744099851106489 -11.30300289963923 -3.9763611315350884
ltibia 41.399568345914446
lfoot 43.65349109187254 9.082506391043598
ltoes 4.47688
1486
root 11.1529 4.15172 10.6304 -82.5439 2.91446 168.791
lowerback -16.20482165816673 -7.151081640050378 -3.1663711572290576
upperback -7.473165184682901 -8.744258950056935 9.344381185803206
thorax 0.7153093363210621 -5.708115667298425 9.622766444883647
lowerneck -1.5892046683603807 -18.528307356294594 13.28353349798719
upperneck -31.4871704851209 -23.214456094023948 -0.30250237691316473
head -10.313537572252018 -9.0342766928664 -2.2303718524562965
rclavicle 2.38542e-15 -1.58034e-14
rhumerus -18.213231309160484 -26.664895492616413 47.40569401369787
rradius 60.12932990695122
rwrist -27.77103258072958
rhand -24.343686186292953 -37.9793830838313
rfingers 7.657577749463317
rthumb 1.2185008039689866 -68.67475401482923
lclavicle 2.38542e-15 -1.58034e-14
lhumerus -15.960597327498828 24.543899056464895 -46.974632894081765
lradius 26.12416588773536
lwrist 27.756119560036698
lhand -15.125591970668006 -31.132350650929553
lfingers 8.189567977494507
lthumb 9.783520466214894 -2.2245289960770473
rfemur 3.5802686334028295 4.610191945768798 1.9474225694539313
rtibia 26.508329976624772
rfoot 25.475546953863972 -16.977685667636692
rtoes 23.44630006328397
lfemur -9.683021791633275 -10.93665149754129 -4.011871428998791
ltibia 37.426886081175326
lfoot 43.61545542161063 8.936299152644953
ltoes 4.47688
